HIERARCHY
ROOT Hips
{
	OFFSET 0.000000 0.000000 0.000000
	CHANNELS 6 Xposition Yposition Zposition Zrotation Yrotation Xrotation 
	JOINT LHipJoint
	{
		OFFSET 0.000000 0.000000 0.000000
		CHANNELS 3 Zrotation Yrotation Xrotation
		JOINT LeftUpLeg
		{
			OFFSET 1.363060 -1.794630 0.839290
			CHANNELS 3 Zrotation Yrotation Xrotation
			JOINT LeftLeg
			{
				OFFSET 2.448110 -6.726130 0.000000
				CHANNELS 3 Zrotation Yrotation Xrotation
				JOINT LeftFoot
				{
					OFFSET 2.562200 -7.039590 0.000000
					CHANNELS 3 Zrotation Yrotation Xrotation
					JOINT LeftToeBase
					{
						OFFSET 0.157640 -0.433110 2.322550
						CHANNELS 3 Zrotation Yrotation Xrotation
						End Site
						{
							OFFSET 0.000000 0.000000 0.000000
						}
					}
				}
			}
		}
	}
	JOINT RHipJoint
	{
		OFFSET 0.000000 0.000000 0.000000
		CHANNELS 3 Zrotation Yrotation Xrotation
		JOINT RightUpLeg
		{
			OFFSET -1.305520 -1.794630 0.839290
			CHANNELS 3 Zrotation Yrotation Xrotation
			JOINT RightLeg
			{
				OFFSET -2.542530 -6.985550 0.000000
				CHANNELS 3 Zrotation Yrotation Xrotation
				JOINT RightFoot
				{
					OFFSET -2.568260 -7.056230 0.000000
					CHANNELS 3 Zrotation Yrotation Xrotation
					JOINT RightToeBase
					{
						OFFSET -0.164730 -0.452590 2.363150
						CHANNELS 3 Zrotation Yrotation Xrotation
						End Site
						{
							OFFSET 0.000000 0.000000 0.000000
						}
					}
				}
			}
		}
	}
	JOINT LowerBack
	{
		OFFSET 0.000000 0.000000 0.000000
		CHANNELS 3 Zrotation Yrotation Xrotation
		JOINT Spine
		{
			OFFSET 0.028270 2.035590 -0.193380
			CHANNELS 3 Zrotation Yrotation Xrotation
			JOINT Spine1
			{
				OFFSET 0.056720 2.048850 -0.042750
				CHANNELS 3 Zrotation Yrotation Xrotation
				JOINT Neck
				{
					OFFSET 0.000000 0.000000 0.000000
					CHANNELS 3 Zrotation Yrotation Xrotation
					JOINT Neck1
					{
						OFFSET -0.054170 1.746240 0.172020
						CHANNELS 3 Zrotation Yrotation Xrotation
						JOINT Head
						{
							OFFSET 0.104070 1.761360 -0.123970
							CHANNELS 3 Zrotation Yrotation Xrotation
							End Site
							{
								OFFSET 0.000000 0.000000 0.000000
							}
						}
					}
				}
				JOINT LeftShoulder
				{
					OFFSET 0.000000 0.000000 0.000000
					CHANNELS 3 Zrotation Yrotation Xrotation
					JOINT LeftArm
					{
						OFFSET 3.362410 1.200890 -0.311210
						CHANNELS 3 Zrotation Yrotation Xrotation
						JOINT LeftForeArm
						{
							OFFSET 4.983000 -0.000000 -0.000000
							CHANNELS 3 Zrotation Yrotation Xrotation
							JOINT LeftHand
							{
								OFFSET 3.483560 -0.000000 -0.000000
								CHANNELS 3 Zrotation Yrotation Xrotation
								JOINT LeftFingerBase
								{
									OFFSET 0.000000 0.000000 0.000000
									CHANNELS 3 Zrotation Yrotation Xrotation
									JOINT LeftHandIndex1
									{
										OFFSET 0.715260 -0.000000 -0.000000
										CHANNELS 3 Zrotation Yrotation Xrotation
										End Site
										{
											OFFSET 0.000000 0.000000 0.000000
										}
									}
								}
								JOINT LThumb
								{
									OFFSET 0.000000 0.000000 0.000000
									CHANNELS 3 Zrotation Yrotation Xrotation
									End Site
									{
										OFFSET 0.000000 0.000000 0.000000
									}
								}
							}
						}
					}
				}
				JOINT RightShoulder
				{
					OFFSET 0.000000 0.000000 0.000000
					CHANNELS 3 Zrotation Yrotation Xrotation
					JOINT RightArm
					{
						OFFSET -3.136600 1.374050 -0.404650
						CHANNELS 3 Zrotation Yrotation Xrotation
						JOINT RightForeArm
						{
							OFFSET -5.241900 -0.000000 -0.000000
							CHANNELS 3 Zrotation Yrotation Xrotation
							JOINT RightHand
							{
								OFFSET -3.444170 -0.000000 -0.000000
								CHANNELS 3 Zrotation Yrotation Xrotation
								JOINT RightFingerBase
								{
									OFFSET 0.000000 0.000000 0.000000
									CHANNELS 3 Zrotation Yrotation Xrotation
									JOINT RightHandIndex1
									{
										OFFSET -0.622530 -0.000000 -0.000000
										CHANNELS 3 Zrotation Yrotation Xrotation
										End Site
										{
											OFFSET 0.000000 0.000000 0.000000
										}
									}
								}
								JOINT RThumb
								{
									OFFSET 0.000000 0.000000 0.000000
									CHANNELS 3 Zrotation Yrotation Xrotation
									End Site
									{
										OFFSET 0.000000 0.000000 0.000000
									}
								}
							}
						}
					}
				}
			}
		}
	}
}
MOTION
Frames: 9
Frame Time: 0.008333
32.845469 16.426718 8.036604 -25.219613 -61.344780 32.532906 0.169213 -1.826212 -2.827423 3.281602 2.489811 -46.941076 1.755364 8.826654 23.918422 -3.391296 18.204797 1.528634 0.048900 -1.427600 -3.926200 -0.373063 0.662575 -1.213068 15.055209 -1.148548 -2.436832 -2.361579 -10.342694 28.983951 3.027674 -18.236696 -8.373728 -1.833900 8.511100 -24.277600 6.708413 1.142671 11.969593 1.851470 2.360838 -3.943091 4.005365 1.169966 -3.245653 -7.178540 -1.405411 -12.163215 -0.163178 -0.995153 -2.746056 1.615100 -0.747800 3.450400 4.841401 3.517262 0.393474 -98.476760 -32.274374 50.976305 55.389626 -60.847086 -25.825558 -1.306459 3.173312 -4.129417 9.623815 36.911334 5.998300 -7.125000 0.000000 0.000000 -26.076500 62.013700 -11.202300 -2.896920 -3.998449 -2.040326 87.708058 37.654834 76.605037 -51.710266 55.384304 -28.811751 -0.873311 0.048204 10.372955 -31.965029 -22.993722 13.311300 7.125000 0.000000 0.000000 -2.224200 -56.439700 0.624100 
32.715517 16.432892 8.186671 -25.113938 -60.882139 32.598714 0.174878 -1.819218 -2.825641 2.969257 2.796006 -47.229615 1.738969 8.783511 23.791194 -3.442992 18.432731 1.583421 0.036400 -1.231400 -3.385800 -0.371776 0.654054 -1.208276 15.094993 -0.967411 -1.796114 -2.302557 -10.216050 28.557823 3.172198 -18.878093 -7.348689 -1.844000 8.533300 -24.346000 6.554689 1.193556 11.871833 1.810157 2.410218 -3.976935 3.968944 1.197544 -3.286244 -7.246035 -1.539921 -12.106791 -0.002203 -1.155559 -2.822472 1.674800 -0.817900 3.426200 4.817179 3.527293 0.380701 -98.266651 -32.526267 50.821235 55.609498 -60.884602 -25.990084 -1.304792 3.158261 -4.038971 9.605243 36.867298 5.985900 -7.125000 0.000000 0.000000 -26.065800 61.986600 -11.180600 -2.901839 -3.989912 -2.038742 87.821728 37.642406 76.441630 -52.101627 55.523032 -29.131177 -0.875035 0.046665 10.369416 -31.905572 -23.000995 13.283200 7.125000 0.000000 0.000000 -2.154800 -56.431600 0.604200 
32.585665 16.439564 8.339925 -24.992278 -60.405320 32.653592 0.180503 -1.812235 -2.821684 2.604701 3.108227 -47.558174 1.738595 8.777569 23.780136 -3.472038 18.567595 1.644516 0.026700 -1.054600 -2.898900 -0.370483 0.646189 -1.205116 15.141980 -0.768182 -1.189944 -2.253289 -10.104468 28.177847 3.310539 -19.528756 -6.266668 -1.842200 8.529300 -24.333600 6.391514 1.238655 11.779970 1.768963 2.451850 -4.009910 3.936383 1.221148 -3.328184 -7.316181 -1.677957 -12.051773 0.170834 -1.319357 -2.905749 1.738700 -0.889200 3.400800 4.792057 3.538712 0.366495 -98.039206 -32.796360 50.652377 55.796321 -60.908595 -26.134091 -1.299288 3.143731 -3.906107 9.597581 36.801037 5.975300 -7.125000 0.000000 0.000000 -26.024600 61.942600 -11.134500 -2.905702 -3.981818 -2.034969 87.903069 37.598313 76.206580 -52.502334 55.663622 -29.459717 -0.876993 0.045153 10.362764 -31.859054 -23.008860 13.262000 7.125000 0.000000 0.000000 -2.099600 -56.427300 0.588500 
32.456012 16.446833 8.496166 -24.855046 -59.913010 32.697067 0.186031 -1.805366 -2.815535 2.196277 3.417220 -47.919290 1.753144 8.806706 23.878732 -3.479795 18.614048 1.703485 0.018800 -0.884400 -2.430700 -0.369079 0.638968 -1.203598 15.199339 -0.553044 -0.622602 -2.214791 -10.010169 27.850279 3.442386 -20.193803 -5.127492 -1.831100 8.504900 -24.258600 6.221378 1.276584 11.697147 1.727667 2.484425 -4.041912 3.905520 1.239939 -3.373056 -7.388581 -1.819543 -11.998675 0.356374 -1.486646 -2.996183 1.807100 -0.961600 3.374500 4.765915 3.551377 0.350871 -97.793322 -33.084572 50.468320 55.947966 -60.918649 -26.256492 -1.290058 3.129843 -3.735642 9.602222 36.717033 5.967800 -7.125000 0.000000 0.000000 -25.955500 61.885800 -11.067800 -2.908553 -3.974116 -2.029081 87.955336 37.521479 75.905721 -52.910844 55.805581 -29.795796 -0.879121 0.043635 10.350474 -31.822615 -23.017433 13.246200 7.125000 0.000000 0.000000 -2.055200 -56.426400 0.576000 
32.326658 16.454600 8.655295 -24.700688 -59.404862 32.726150 0.191271 -1.798636 -2.807233 1.747263 3.718145 -48.306764 1.782152 8.869117 24.081212 -3.468115 18.579365 1.757955 0.012600 -0.726200 -1.995600 -0.367545 0.632494 -1.203820 15.268535 -0.321940 -0.096862 -2.187796 -9.935448 27.581200 3.566422 -20.872395 -3.937781 -1.808600 8.455400 -24.106200 6.041822 1.308024 11.624902 1.686588 2.508503 -4.072135 3.878952 1.254380 -3.419467 -7.464307 -1.965243 -11.947731 0.553232 -1.657920 -3.094130 1.879600 -1.035600 3.347200 4.738935 3.565415 0.334051 -97.533719 -33.392285 50.272197 56.061570 -60.914800 -26.355034 -1.277212 3.116781 -3.533122 9.621796 36.615359 5.964900 -7.125000 0.000000 0.000000 -25.856300 61.816600 -10.979900 -2.910385 -3.966931 -2.021077 87.976906 37.413297 75.540120 -53.325424 55.948121 -30.138276 -0.881458 0.042036 10.331081 -31.801382 -23.029010 13.239700 7.125000 0.000000 0.000000 -2.026800 -56.432200 0.568300 
32.197602 16.463065 8.817113 -24.525809 -58.879771 32.737925 0.196013 -1.792187 -2.796813 1.262978 4.001317 -48.714301 1.824772 8.962758 24.381053 -3.438597 18.469152 1.801395 0.008000 -0.578400 -1.589400 -0.365798 0.626887 -1.205741 15.349614 -0.077501 0.381708 -2.172910 -9.882201 27.377041 3.678656 -21.552521 -2.704218 -1.773000 8.376400 -23.863300 5.853080 1.331186 11.564311 1.645923 2.522002 -4.100349 3.856726 1.263169 -3.467749 -7.542909 -2.113663 -11.897573 0.761916 -1.831612 -3.200316 1.956400 -1.110300 3.318400 4.711145 3.580828 0.316160 -97.260505 -33.719549 50.062466 56.136925 -60.897350 -26.430279 -1.260760 3.105021 -3.305207 9.662757 36.509753 5.971800 -7.125000 0.000000 0.000000 -25.732800 61.747600 -10.881400 -2.911233 -3.960211 -2.011093 87.973004 37.271976 75.114392 -53.740842 56.089308 -30.482514 -0.884037 0.040323 10.307630 -31.798279 -23.047321 13.245800 7.125000 0.000000 0.000000 -2.017100 -56.449800 0.566400 
32.069144 16.472226 8.981320 -24.328406 -58.337536 32.730314 0.199992 -1.786164 -2.784437 0.751018 4.255487 -49.132525 1.880396 9.085010 24.769581 -3.394917 18.296925 1.828623 0.004600 -0.438000 -1.203500 -0.363729 0.622239 -1.209307 15.441945 0.176892 0.806900 -2.170991 -9.852302 27.243443 3.776030 -22.223904 -1.436884 -1.723200 8.264000 -23.518900 5.655203 1.345639 11.515511 1.605544 2.523736 -4.125857 3.838551 1.266029 -3.516175 -7.624255 -2.264893 -11.848447 0.980173 -2.007937 -3.315865 2.036700 -1.185900 3.287500 4.682548 3.597676 0.297351 -96.976130 -34.068971 49.839743 56.171736 -60.866111 -26.480529 -1.241275 3.094527 -3.059003 9.721327 36.402534 5.986800 -7.125000 0.000000 0.000000 -25.591500 61.680200 -10.776300 -2.911217 -3.954113 -1.999237 87.945135 37.100080 74.634522 -54.155413 56.228760 -30.827464 -0.886812 0.038602 10.280768 -31.809874 -23.067927 13.260600 7.125000 0.000000 0.000000 -2.022800 -56.473500 0.569200 
31.941183 16.482184 9.147718 -24.112284 -57.776628 32.708017 0.203607 -1.780410 -2.770277 0.216263 4.483232 -49.561103 1.948761 9.233502 25.241509 -3.336859 18.061860 1.842436 0.002200 -0.304300 -0.836100 -0.361231 0.618572 -1.214304 15.550906 0.442775 1.173225 -2.182503 -9.847093 27.184919 3.857079 -22.882136 -0.144366 -1.660000 8.118700 -23.075300 5.451679 1.350551 11.480377 1.565422 2.513388 -4.149304 3.822345 1.262636 -3.567206 -7.709535 -2.419139 -11.800772 1.209454 -2.186477 -3.438957 2.121700 -1.262200 3.255700 4.653034 3.615817 0.277607 -96.680470 -34.440101 49.604234 56.163704 -60.820606 -26.504855 -1.218630 3.085604 -2.800882 9.803968 36.301712 6.014300 -7.125000 0.000000 0.000000 -25.432600 61.622000 -10.669400 -2.910423 -3.948485 -1.985793 87.899477 36.896520 74.105849 -54.564622 56.364804 -31.169128 -0.889772 0.036892 10.251992 -31.836261 -23.090928 13.284200 7.125000 0.000000 0.000000 -2.044400 -56.503300 0.576700 
31.814119 16.492939 9.316208 -23.868162 -57.196146 32.657341 0.205882 -1.775086 -2.754241 -0.335741 4.667848 -49.981567 2.028235 9.404062 25.782699 -3.268329 17.780120 1.841051 0.000700 -0.173400 -0.476400 -0.358285 0.616145 -1.220743 15.670055 0.713210 1.480230 -2.208197 -9.868125 27.206822 3.919672 -23.516104 1.156169 -1.582600 7.936500 -22.521300 5.234127 1.349793 11.460095 1.526073 2.495219 -4.169775 3.815426 1.255210 -3.619751 -7.795742 -2.578672 -11.739257 1.446359 -2.372556 -3.574360 2.208600 -1.341900 3.217600 4.623216 3.635541 0.257691 -96.388715 -34.831775 49.373334 56.113291 -60.763163 -26.502660 -1.192922 3.079172 -2.538935 9.920866 36.220601 6.061800 -7.125000 0.000000 0.000000 -25.257200 61.586300 -10.569000 -2.908521 -3.943675 -1.970181 87.821670 36.659574 73.517452 -54.972484 56.499031 -31.510892 -0.892939 0.035111 10.219116 -31.879751 -23.117943 13.318500 7.125000 0.000000 0.000000 -2.084000 -56.541700 0.589900 
